HIERARCHY
ROOT pelvis
{
  OFFSET 0 0 0
  CHANNELS 6 Xposition Yposition Zposition Zrotation Xrotation Yrotation
  JOINT pelvis_right_femur
  {
    OFFSET -11.43119 -3.542788 0.2090856
    CHANNELS 3 Zrotation Xrotation Yrotation
    JOINT right_femur_tibia
    {
      OFFSET -1.028693 -40.73281 5
      CHANNELS 3 Zrotation Xrotation Yrotation
      JOINT right_tibia_foot
      {
        OFFSET -0.5013517 -42.05707 -5
        CHANNELS 3 Zrotation Xrotation Yrotation
        End Site
        {
          OFFSET 0 -5 10
        }
      }
    }
  }
  JOINT pelvis_left_femur
  {
    OFFSET 11.43119 -3.542788 0.2090856
    CHANNELS 3 Zrotation Xrotation Yrotation
    JOINT left_femur_tibia
    {
      OFFSET 1.028693 -40.73281 5
      CHANNELS 3 Zrotation Xrotation Yrotation
      JOINT left_tibia_foot
      {
        OFFSET 0.3200228 -42.98253 -5
        CHANNELS 3 Zrotation Xrotation Yrotation
        End Site
        {
          OFFSET 0 -5 10
        }
      }
    }
  }
  JOINT pelvis_spine1
  {
    OFFSET 0 8.64413 -3.209807
    CHANNELS 3 Zrotation Xrotation Yrotation
    JOINT spine1
    {
      OFFSET 0 29.53957 -1.762685
      CHANNELS 3 Zrotation Xrotation Yrotation
      JOINT spine2
      {
        OFFSET 0 16.36153 -0.1422377
        CHANNELS 3 Zrotation Xrotation Yrotation
        JOINT neck
        {
          OFFSET 0 11.60093 5
          CHANNELS 3 Zrotation Xrotation Yrotation
          End Site
          {
            OFFSET 0 20 0
          }
        }
      }
      JOINT right_manubrium
      {
        OFFSET -4.671311 15.89868 4
        CHANNELS 3 Zrotation Xrotation Yrotation
        JOINT right_clavicle
        {
          OFFSET -13.601 1.573642 -2.74176
          CHANNELS 3 Zrotation Xrotation Yrotation
          JOINT right_humerus
          {
            OFFSET -0.06331682 -27.72702 2.252146
            CHANNELS 3 Zrotation Xrotation Yrotation
            JOINT right_radius
            {
              OFFSET -0.5696302 -23.92083 0.4042105
              CHANNELS 3 Zrotation Xrotation Yrotation
              End Site
              {
                OFFSET 0 -15 0
              }
            }
          }
        }
      }
      JOINT left_manubrium
      {
        OFFSET 4.671311 15.89868 4
        CHANNELS 3 Zrotation Xrotation Yrotation
        JOINT left_clavicle
        {
          OFFSET 13.601 1.573642 -2.74176
          CHANNELS 3 Zrotation Xrotation Yrotation
          JOINT left_humerus
          {
            OFFSET 0.000209614 -29.01858 1.101395
            CHANNELS 3 Zrotation Xrotation Yrotation
            JOINT left_radius
            {
              OFFSET -0.2288314 -24.59216 1.790347
              CHANNELS 3 Zrotation Xrotation Yrotation
              End Site
              {
                OFFSET 0 -15 0
              }
            }
          }
        }
      }
    }
  }
}
MOTION
Frames: 7
Frame Time: 0.0416666666667
0.05840255 48.4275 0.02063989 -1.940637 -20.77372 -0.3738353 -54.65926 -60.34336 -51.74929 -180 85.07385 -180 5.405399 5.454309 -1.025251 65.24134 -51.0401 61.90662 -180 80.17814 -180 -4.81959 2.707271 -19.10188 -3.849308 22.11823 0.7599825 8.373909 12.52617 -8.93911 -11.97684 7.244206 8.715105 9.076011 -31.51187 5.166812 22.45345 -6.845324 20.47813 -62.36144 -30.19396 11.37286 0 -67.7024 0 4.796866 -15.32597 12.79639 -27.38293 -31.03713 -4.915102 57.94808 -21.20281 -27.21815 0 -72.97104 0 -16.18322 14.85354 -27.27207
0.06698117 48.46704 0.02497016 -1.886003 -20.82044 -0.2679314 -54.6629 -60.20259 -51.68523 -180 85.08949 -180 5.397628 5.426668 -1.001822 65.00564 -51.04001 61.74668 -180 80.24309 -180 -4.800135 2.683165 -19.12005 -3.962839 22.09097 1.045484 8.323309 12.70643 -9.003211 -12.42352 7.424842 8.695697 9.018673 -31.66197 4.859595 22.18547 -6.435346 20.66944 -62.34424 -30.7376 12.02738 0 -68.82541 0 3.270747 -16.54891 11.24103 -27.60368 -31.06794 -4.976025 57.48174 -21.47854 -27.21855 0 -73.11903 0 -15.77466 16.56447 -29.43672
0.07260567 48.49791 0.0331669 -1.858069 -20.82898 -0.1896542 -54.6892 -60.09671 -51.69581 -180 85.10294 -180 5.389756 5.403897 -0.9845964 64.86834 -51.05781 61.65785 -180 80.29077 -180 -4.778095 2.665353 -19.14007 -4.039652 21.9971 1.415812 8.275939 12.90671 -9.097911 -12.78204 7.657791 8.674274 9.014189 -31.77743 4.586275 21.9241 -6.044132 20.96362 -62.27182 -31.41215 12.75488 0 -69.9074 0 1.631262 -17.68264 9.809662 -27.92187 -31.0895 -5.101884 56.95681 -21.7171 -27.16348 0 -73.27794 0 -15.32479 18.01331 -31.352
0.09625779 48.55437 0.08439523 -1.847327 -20.80683 -0.1290468 -54.70849 -59.96239 -51.70372 -180 85.11799 -180 5.384379 5.371795 -0.9593714 64.73272 -51.04899 61.5629 -180 80.31575 -180 -4.757884 2.639883 -19.17318 -4.087085 21.79164 1.835422 8.238663 13.19515 -9.234109 -13.03776 7.90016 8.668282 9.075396 -31.91213 4.387192 21.66395 -5.70346 21.37099 -62.16682 -32.18952 13.51062 0 -70.73306 0 -0.1316922 -18.67812 8.469207 -28.32978 -31.08995 -5.30264 56.40763 -21.91149 -27.08587 0 -73.37157 0 -14.86884 19.23826 -33.05102
0.09037975 48.56411 0.0917782 -1.834639 -20.79994 -0.07385494 -54.75283 -59.89997 -51.75684 -180 85.11169 -180 5.378137 5.342836 -0.9264442 64.68908 -51.07359 61.53747 -180 80.33493 -180 -4.754358 2.626805 -19.18887 -4.151835 21.72702 2.1429 8.126518 13.31725 -9.246236 -13.1766 8.108101 8.663165 9.192768 -32.03103 4.248594 21.37949 -5.420196 21.87138 -62.00525 -33.02919 14.30046 0 -71.22503 0 -1.989034 -19.52329 7.218793 -28.63843 -31.10868 -5.459457 55.9577 -22.06518 -26.9523 0 -73.43077 0 -14.43646 20.26118 -34.5455
0.07891966 48.57891 0.09385449 -1.845738 -20.78909 -0.03210194 -54.74489 -59.85499 -51.77201 -180 85.12336 -180 5.378859 5.315976 -0.9085237 64.68856 -51.07686 61.53638 -180 80.36197 -180 -4.748948 2.615933 -19.20753 -4.216981 21.71854 2.360876 8.002147 13.37597 -9.181204 -13.21246 8.244821 8.637875 9.35928 -32.18304 4.137234 21.09533 -5.166977 22.41959 -61.78733 -33.82612 15.08245 0 -71.27906 0 -3.929578 -20.21621 6.026028 -28.81326 -31.10294 -5.556132 55.5955 -22.19075 -26.83143 0 -73.46273 0 -14.05264 21.11161 -35.85895
0.07391817 48.59274 0.09233851 -1.879448 -20.75024 0.0003797708 -54.72739 -59.84096 -51.80596 -180 85.1418 -180 5.38963 5.298243 -0.9217867 64.75956 -51.09902 61.6036 -180 80.38559 -180 -4.746626 2.625921 -19.23517 -4.272209 21.70058 2.495866 7.917419 13.37564 -9.094451 -13.23325 8.342259 8.611314 9.51744 -32.32535 4.038108 20.85113 -4.945447 22.96387 -61.52465 -34.52189 15.80897 0 -70.93847 0 -5.926568 -20.78604 4.903297 -28.86473 -31.05106 -5.627027 55.27663 -22.32038 -26.79922 0 -73.46754 0 -13.7303 21.8288 -36.99463
